# Blender v2.92.0 OBJ File: ''
# www.blender.org
mtllib campfire.mtl
o Plane.001_Plane
v -99.600800 0.031147 -107.153656
v -99.600800 0.031147 -107.282288
v -99.005783 0.052865 -107.146057
v -99.005783 0.031147 -107.054611
v -99.598045 0.099133 -107.227615
v -99.600800 0.128816 -107.119507
v -99.600800 0.196184 -107.193611
v -99.600800 0.162164 -107.295479
v -99.005783 0.124884 -107.162628
v -99.005783 0.086430 -107.018257
v -99.005783 0.166707 -107.071442
v -99.596054 0.092626 -107.013130
v -99.589081 0.031147 -106.903320
v -99.593536 0.100331 -106.854874
v -99.596054 0.156685 -106.928688
v -99.005783 0.156685 -106.909798
v -99.005783 0.156685 -106.849419
v -99.005783 0.093317 -106.784927
v -99.005783 0.097450 -106.961670
v -99.005783 0.031147 -106.884422
v -99.382072 0.031147 -107.046051
v -99.442177 0.031147 -107.077721
v -99.336250 0.031147 -107.059189
v -99.386757 0.057545 -107.124733
v -99.328926 0.057047 -107.106697
v -99.239838 0.178745 -106.881134
v -99.184937 0.179223 -106.884300
v -99.189278 0.179412 -106.953415
v -99.267502 0.188429 -106.983383
v -99.297348 0.166128 -106.938560
v -100.152313 -0.000000 -106.675758
v -100.276054 -0.000000 -106.976410
v -100.188843 0.000000 -107.350395
v -100.047905 0.000000 -107.424461
v -99.967598 0.000000 -107.260963
v -99.905190 -0.000000 -106.612320
v -99.611656 0.000000 -107.663910
v -99.822952 0.000000 -107.530479
v -99.939064 0.000000 -107.550896
v -99.938156 0.000000 -107.673347
v -99.489433 0.000000 -107.875908
v -99.383438 0.000000 -107.774559
v -99.444489 0.000000 -107.652153
v -98.868240 0.000000 -107.819351
v -98.610123 0.000000 -107.613770
v -98.668777 0.000000 -107.449577
v -98.790955 0.000000 -107.419968
v -99.138802 0.000000 -107.613991
v -99.244888 0.000000 -107.829025
v -98.341522 -0.000000 -106.716988
v -98.482430 -0.000000 -106.593735
v -98.615959 -0.000000 -106.786919
v -98.615959 0.000000 -107.141991
v -98.511772 0.000000 -107.271217
v -98.401863 0.000000 -107.306305
v -98.328430 -0.000000 -106.988297
v -98.903526 -0.000000 -106.248512
v -99.011597 -0.000000 -106.313606
v -98.973373 -0.000000 -106.429726
v -98.720802 -0.000000 -106.594498
v -98.655136 -0.000000 -106.457939
v -99.439690 -0.000000 -106.339401
v -99.140556 -0.000000 -106.339401
v -99.214928 -0.000000 -106.218529
v -99.333427 -0.000000 -106.195938
v -99.567505 -0.000000 -106.255348
v -99.774857 -0.000000 -106.308998
v -99.819420 -0.000000 -106.498871
v -98.392220 0.092048 -106.731476
v -98.442574 0.193239 -106.785744
v -98.481834 0.105758 -106.666443
v -98.363586 0.113276 -106.979614
v -98.442574 0.213705 -106.958687
v -98.440285 0.103847 -107.241035
v -98.442574 0.170726 -107.131393
v -98.550896 0.105758 -106.812889
v -98.558830 0.107716 -107.116417
v -98.503250 0.107556 -107.218147
v -98.720802 0.155205 -106.524742
v -98.683327 0.122741 -106.457939
v -98.752419 0.176012 -106.449837
v -98.883812 0.093836 -106.312164
v -98.891685 0.176012 -106.351540
v -98.970284 0.103714 -106.320930
v -98.944489 0.103714 -106.406418
v -99.217110 0.122541 -106.304062
v -99.252594 0.169374 -106.243614
v -99.333427 0.149833 -106.229256
v -99.567505 0.126681 -106.298561
v -99.731224 0.133496 -106.318680
v -99.741974 0.080513 -106.408165
v -99.439690 0.113770 -106.293015
v -100.188843 0.155607 -107.304207
v -100.073952 0.152608 -107.345459
v -100.274216 0.172937 -106.974487
v -100.125793 0.253512 -107.235611
v -100.054222 0.166097 -107.206635
v -100.166878 0.279629 -106.979851
v -100.103683 0.222647 -106.783524
v -100.095581 0.136362 -106.726952
v -100.021568 0.173472 -106.689865
v -99.459618 0.096774 -107.760536
v -99.510994 0.122830 -107.803970
v -99.496719 0.118764 -107.709595
v -99.639290 0.123419 -107.707260
v -99.867203 0.150223 -107.655144
v -99.895714 0.162753 -107.595917
v -99.831360 0.164716 -107.572739
v -98.706551 0.131557 -107.605263
v -98.801689 0.196500 -107.578842
v -98.732735 0.129149 -107.498833
v -98.801414 0.153199 -107.491928
v -98.923370 0.125921 -107.744072
v -98.995277 0.196500 -107.698639
v -99.089409 0.144367 -107.651817
v -99.146103 0.164436 -107.754158
vt 0.557490 0.357047
vt 0.582189 0.242840
vt 0.564656 0.238749
vt 0.036888 0.852795
vt 0.041186 0.873444
vt 0.054107 0.864368
vt 0.582290 0.037364
vt 0.574334 0.038558
vt 0.582290 0.157018
vt 0.568707 0.156492
vt 0.559077 0.036928
vt 0.758772 0.959525
vt 0.772276 0.957065
vt 0.772276 0.937417
vt 0.657817 0.441813
vt 0.676561 0.555378
vt 0.676561 0.436594
vt 0.341864 0.459061
vt 0.324559 0.458844
vt 0.328732 0.575086
vt 0.310732 0.575086
vt 0.310035 0.459571
vt 0.557612 0.237258
vt 0.551703 0.962040
vt 0.567893 0.944016
vt 0.548303 0.937740
vt 0.667917 0.037967
vt 0.661521 0.153811
vt 0.656066 0.036928
vt 0.674200 0.635896
vt 0.658200 0.750305
vt 0.657817 0.634085
vt 0.678150 0.038727
vt 0.452075 0.438881
vt 0.474527 0.552535
vt 0.458233 0.552764
vt 0.443787 0.440203
vt 0.176267 0.951436
vt 0.176538 0.933968
vt 0.198427 0.940526
vt 0.871840 0.288099
vt 0.874701 0.301128
vt 0.864114 0.282946
vt 0.860057 0.298765
vt 0.862730 0.262240
vt 0.874701 0.245046
vt 0.857563 0.246767
vt 0.660029 0.828013
vt 0.674200 0.866123
vt 0.663837 0.864103
vt 0.654629 0.838621
vt 0.657301 0.879230
vt 0.951782 0.041672
vt 0.945479 0.072612
vt 0.946169 0.036928
vt 0.867301 0.237258
vt 0.102491 0.165456
vt 0.102491 0.036928
vt 0.036888 0.115368
vt 0.448743 0.343624
vt 0.461813 0.362738
vt 0.483714 0.352604
vt 0.439918 0.265998
vt 0.483714 0.255822
vt 0.456939 0.245108
vt 0.371280 0.153164
vt 0.371280 0.074840
vt 0.310035 0.101423
vt 0.345811 0.378291
vt 0.324364 0.384988
vt 0.310035 0.322365
vt 0.176267 0.682752
vt 0.183512 0.741622
vt 0.212375 0.734064
vt 0.073088 0.409945
vt 0.059613 0.330117
vt 0.037737 0.350749
vt 0.771982 0.859253
vt 0.747976 0.860032
vt 0.768271 0.843584
vt 0.448949 0.049935
vt 0.463899 0.088579
vt 0.445056 0.084031
vt 0.453146 0.118093
vt 0.485237 0.090491
vt 0.465757 0.139737
vt 0.467992 0.039509
vt 0.485301 0.036928
vt 0.790266 0.833185
vt 0.791038 0.860032
vt 0.571394 0.643295
vt 0.571098 0.677392
vt 0.550300 0.648555
vt 0.548303 0.708409
vt 0.564063 0.619769
vt 0.570949 0.711485
vt 0.559064 0.728553
vt 0.963112 0.259270
vt 0.948918 0.244014
vt 0.963112 0.237258
vt 0.768037 0.460767
vt 0.751592 0.448181
vt 0.770814 0.436594
vt 0.770814 0.530581
vt 0.750337 0.467525
vt 0.761096 0.813376
vt 0.748916 0.834184
vt 0.451024 0.949137
vt 0.425306 0.925400
vt 0.423209 0.949137
vt 0.866723 0.048452
vt 0.871703 0.037055
vt 0.856463 0.036928
vt 0.053856 0.737246
vt 0.072851 0.694604
vt 0.050602 0.693903
vt 0.038204 0.704500
vt 0.036888 0.733541
vt 0.072851 0.747417
vt 0.046576 0.752716
vt 0.062101 0.765737
vt 0.857794 0.087527
vt 0.870547 0.099488
vt 0.871703 0.081298
vt 0.577774 0.830106
vt 0.557934 0.808895
vt 0.558090 0.825882
vt 0.577774 0.863884
vt 0.943183 0.659191
vt 0.956082 0.634085
vt 0.933170 0.634902
vt 0.204948 0.564917
vt 0.177781 0.588367
vt 0.209320 0.580869
vt 0.181027 0.519485
vt 0.176267 0.564914
vt 0.209320 0.487645
vt 0.206396 0.519618
vt 0.874805 0.833066
vt 0.890099 0.813376
vt 0.864814 0.815455
vt 0.036888 0.541995
vt 0.055280 0.601942
vt 0.051846 0.539845
vt 0.755643 0.697089
vt 0.752292 0.672562
vt 0.747976 0.720539
vt 0.055280 0.496762
vt 0.038188 0.483801
vt 0.960941 0.436594
vt 0.939686 0.464392
vt 0.960941 0.458158
vt 0.188727 0.396186
vt 0.218464 0.331211
vt 0.185800 0.330727
vt 0.584041 0.436594
vt 0.562015 0.445338
vt 0.576756 0.456754
vt 0.204419 0.051978
vt 0.183457 0.072782
vt 0.202141 0.079554
vt 0.236259 0.070214
vt 0.233959 0.036928
vt 0.548303 0.510299
vt 0.571270 0.506775
vt 0.584041 0.545913
vt 0.192588 0.282850
vt 0.176267 0.293907
vt 0.218464 0.272558
vt 0.437192 0.823319
vt 0.470895 0.845338
vt 0.470895 0.797114
vt 0.442281 0.836993
vt 0.423209 0.840290
vt 0.200163 0.181676
vt 0.236259 0.198702
vt 0.188427 0.162063
vt 0.769892 0.237258
vt 0.781691 0.243316
vt 0.763458 0.247917
vt 0.178619 0.860112
vt 0.197055 0.837979
vt 0.176267 0.838551
vt 0.180020 0.815478
vt 0.773856 0.273937
vt 0.781691 0.319266
vt 0.859394 0.634085
vt 0.845398 0.720615
vt 0.859394 0.718510
vt 0.879854 0.924445
vt 0.864814 0.955285
vt 0.888937 0.955285
vt 0.764002 0.319093
vt 0.655965 0.259831
vt 0.689681 0.246496
vt 0.658114 0.237258
vt 0.689681 0.297870
vt 0.664730 0.302644
vt 0.688266 0.325859
vt 0.310035 0.940873
vt 0.328901 0.945956
vt 0.315356 0.961816
vt 0.328901 0.963072
vt 0.779691 0.070670
vt 0.757854 0.036928
vt 0.751926 0.067965
vt 0.341038 0.672143
vt 0.310756 0.666796
vt 0.310035 0.680882
vt 0.755765 0.112653
vt 0.782687 0.101477
vt 0.455016 0.642749
vt 0.439918 0.680178
vt 0.452767 0.687425
vt 0.470895 0.699510
vt 0.470895 0.634731
vt 0.450507 0.723258
vt 0.341155 0.814256
vt 0.310035 0.850717
vt 0.341155 0.867018
vt 0.865910 0.504603
vt 0.844590 0.450972
vt 0.852256 0.496008
vt 0.341038 0.740400
vt 0.311594 0.737033
vt 0.582189 0.362738
vt 0.066067 0.873444
vt 0.068709 0.848219
vt 0.051064 0.839593
vt 0.754524 0.933888
vt 0.747976 0.944644
vt 0.660015 0.560229
vt 0.567892 0.962040
vt 0.674200 0.752893
vt 0.678150 0.155121
vt 0.474527 0.436594
vt 0.439918 0.555784
vt 0.199441 0.960226
vt 0.184287 0.960226
vt 0.855467 0.287826
vt 0.873725 0.261049
vt 0.674200 0.826749
vt 0.951782 0.082934
vt 0.055409 0.054017
vt 0.060953 0.187163
vt 0.089876 0.199064
vt 0.455570 0.294951
vt 0.331657 0.036928
vt 0.320625 0.165480
vt 0.354474 0.171252
vt 0.312589 0.269075
vt 0.366142 0.283312
vt 0.340085 0.245108
vt 0.366142 0.353086
vt 0.212375 0.670131
vt 0.188883 0.662223
vt 0.073088 0.272920
vt 0.046559 0.281667
vt 0.036888 0.303302
vt 0.038684 0.392825
vt 0.485301 0.152822
vt 0.571394 0.733160
vt 0.948477 0.256605
vt 0.753362 0.527280
vt 0.439433 0.919194
vt 0.577566 0.807016
vt 0.548303 0.850464
vt 0.956082 0.667308
vt 0.185318 0.479252
vt 0.890099 0.850589
vt 0.049554 0.620047
vt 0.754086 0.735819
vt 0.766086 0.739520
vt 0.766086 0.634085
vt 0.750310 0.640479
vt 0.942471 0.438047
vt 0.218087 0.405396
vt 0.176267 0.122507
vt 0.203102 0.847577
vt 0.203102 0.828783
vt 0.839862 0.654868
vt 0.868044 0.926771
vt 0.773097 0.328978
vt 0.687953 0.258890
vt 0.662947 0.335322
vt 0.782687 0.050295
vt 0.333748 0.648942
vt 0.443095 0.629640
vt 0.313796 0.821904
vt 0.865910 0.436594
vn 0.0367 -0.9991 -0.0208
vn 0.0383 -0.9782 -0.2041
vn 0.0384 -0.9722 -0.2309
vn -0.9996 -0.0261 -0.0063
vn -0.9994 -0.0321 0.0107
vn -1.0000 0.0028 -0.0075
vn 0.1545 0.6153 -0.7730
vn 0.1061 -0.7264 -0.6790
vn 0.1159 -0.2227 -0.9680
vn 1.0000 -0.0000 0.0000
vn 0.1292 0.9373 -0.3237
vn 0.1295 0.9057 -0.4035
vn 0.1291 0.9406 -0.3141
vn -0.1009 0.7362 0.6692
vn -0.1020 0.5494 0.8293
vn -0.1811 -0.3246 0.9283
vn -0.1377 -0.5442 0.8276
vn -0.9985 -0.0525 0.0140
vn -0.9985 -0.0516 0.0184
vn -0.9982 -0.0480 0.0365
vn -0.0000 1.0000 0.0000
vn -0.0754 0.7192 0.6907
vn -0.0809 0.7842 0.6153
vn -0.0747 0.7113 0.6989
vn 0.0265 0.6750 -0.7374
vn 0.0444 0.7857 -0.6170
vn 0.0241 0.6586 -0.7521
vn 0.0469 -0.8600 -0.5081
vn 0.0249 -0.7749 -0.6316
vn 0.0211 -0.7586 -0.6512
vn -0.0693 -0.8270 0.5579
vn -0.0326 -0.6137 0.7888
vn -0.0265 -0.5746 0.8180
vn 0.0000 -1.0000 -0.0000
vn 0.0935 -0.8965 -0.4331
vn 0.1040 -0.8922 -0.4394
vn 0.0736 -0.9041 -0.4209
vn -0.1467 0.9803 0.1325
vn -0.0668 0.9949 0.0756
vn 0.0554 0.9973 0.0479
vn -0.5753 0.7961 -0.1879
vn -0.6599 0.7423 -0.1161
vn -0.6830 0.7242 -0.0944
vn 0.2573 0.5946 -0.7618
vn 0.3426 0.5529 -0.7596
vn 0.3539 0.5469 -0.7588
vn -0.4523 -0.3645 0.8140
vn -0.6673 -0.1602 0.7274
vn -0.4311 -0.3809 0.8179
vn 0.1531 -0.8001 0.5801
vn 0.0531 -0.7828 0.6201
vn 0.1649 -0.8015 0.5748
vn 0.7622 -0.6179 -0.1929
vn 0.7313 -0.6791 -0.0640
vn 0.7262 -0.6858 -0.0475
vn 0.5314 0.5903 0.6076
vn 0.8376 0.5326 0.1216
vn 0.8164 0.5692 0.0979
vn 0.7912 0.6074 0.0719
vn 0.7856 0.5904 -0.1853
vn 0.8276 0.5082 -0.2383
vn 0.7602 0.6305 -0.1569
vn 0.9032 0.3420 -0.2592
vn 0.8811 0.4199 -0.2174
vn 0.9111 0.3041 -0.2783
vn 0.9344 0.3385 0.1107
vn 0.8965 0.4383 0.0656
vn 0.8723 0.4871 0.0421
vn 0.5833 0.4451 0.6795
vn 0.5790 0.4499 0.6799
vn 0.5933 0.4336 0.6783
vn -0.6393 0.7636 0.0904
vn -0.6902 0.7233 0.0227
vn -0.6436 0.7026 0.3035
vn -0.4866 0.8477 -0.2110
vn -0.3668 0.8552 -0.3662
vn -0.3057 0.8586 -0.4114
vn -0.4857 0.8325 -0.2666
vn -0.2767 0.4389 -0.8548
vn -0.2789 0.4401 -0.8535
vn -0.2736 0.4372 -0.8567
vn -0.7496 0.4280 -0.5049
vn -0.7467 0.4137 -0.5209
vn -0.7298 0.3482 -0.5884
vn -0.8581 0.5131 0.0190
vn -0.8768 0.4808 0.0052
vn -0.8835 0.4684 0.0000
vn -0.7644 0.4829 0.4272
vn -0.7669 0.4270 0.4790
vn -0.7544 0.5516 0.3558
vn 0.8865 0.1958 -0.4193
vn 0.8882 0.1928 -0.4171
vn 0.8825 0.2027 -0.4244
vn 0.6130 0.7891 0.0396
vn 0.5985 0.3121 0.7378
vn 0.5820 0.1898 0.7908
vn 0.5706 0.1311 0.8107
vn 0.5108 0.4303 0.7443
vn 0.4771 0.4754 0.7391
vn 0.5265 0.4079 0.7459
vn -0.3016 0.4077 0.8618
vn -0.2797 0.4222 0.8623
vn -0.4987 0.2571 0.8278
vn -0.0426 0.4285 0.9026
vn -0.7052 0.6764 -0.2127
vn -0.9009 0.3266 -0.2857
vn -0.9014 0.3259 -0.2851
vn -0.9087 0.3149 -0.2741
vn -0.5119 0.3324 -0.7921
vn -0.5045 0.3463 -0.7909
vn -0.5172 0.3223 -0.7928
vn -0.4016 0.8065 -0.4339
vn -0.4012 0.7487 -0.5277
vn -0.3995 0.7212 -0.5659
vn 0.8696 0.2929 0.3975
vn 0.8356 0.3244 0.4434
vn 0.7959 0.3559 0.4897
vn 0.1506 0.1885 0.9705
vn 0.1660 0.2004 0.9655
vn 0.1314 0.1737 0.9760
vn -0.2595 0.2427 0.9348
vn -0.2782 0.2744 0.9205
vn -0.2404 0.2107 0.9475
vn -0.1978 0.2116 0.9571
vn -0.1672 0.2477 0.9543
vn -0.1024 0.3211 0.9415
vn -0.8865 0.4564 0.0767
vn -0.8927 0.4458 0.0660
vn -0.9498 0.3056 -0.0668
vn 0.3028 0.3965 -0.8667
vn 0.3195 0.5263 -0.7880
vn 0.2972 0.3605 -0.8842
vn 0.0773 0.8142 -0.5754
vn 0.1065 0.8388 -0.5340
vn -0.0868 0.8593 -0.5040
vn -0.0407 0.3444 -0.9379
vn -0.0145 0.3013 -0.9534
vn 0.0000 0.2771 -0.9608
vn -0.3752 0.3107 -0.8733
vn -0.3898 0.3213 -0.8630
vn -0.3191 0.2697 -0.9085
vn -0.9710 0.0535 -0.2329
vn -0.9692 0.0279 -0.2446
vn -0.9678 0.0132 -0.2513
vn -0.2398 0.6560 -0.7157
vn 0.7894 0.5901 -0.1695
vn 0.8532 0.4371 -0.2846
vn 0.8520 0.4228 -0.3088
vn 0.8386 0.3564 -0.4119
vn -0.7301 0.6487 -0.2148
vn -0.7105 0.6761 -0.1952
vn -0.6977 0.6927 -0.1828
vn -0.6370 0.6608 0.3968
vn -0.7473 0.3138 0.5857
vn -0.8406 0.3380 0.4233
vn -0.8374 0.1432 0.5276
vn -0.8179 0.4666 0.3366
vn -0.3667 0.3466 0.8634
vn -0.3395 0.3277 0.8817
vn -0.2403 0.2572 0.9360
vn -0.5652 0.4146 0.7132
vn 0.8684 0.4914 -0.0672
vn 0.8496 0.5216 -0.0781
vn 0.8441 0.5300 -0.0812
vn 0.5839 0.8109 -0.0401
vn 0.5520 0.8325 -0.0468
vn 0.7265 0.6866 0.0282
vn 0.4746 0.8795 -0.0339
vn 0.6248 0.5112 -0.5902
vn 0.6439 0.4961 -0.5825
vn 0.5797 0.5443 -0.6063
vn 0.7705 0.5251 0.3614
vn 0.7642 0.5304 0.3670
vn 0.7538 0.5389 0.3760
vn 0.0332 0.9987 0.0380
vn 0.1609 0.9649 0.2076
vn -0.3585 0.3105 -0.8804
vn -0.3705 0.3941 -0.8411
vn -0.3735 0.4191 -0.8275
vn -0.8789 0.3715 -0.2991
vn -0.9448 0.3043 -0.1218
vn -0.9668 0.2556 -0.0072
vn 0.0573 0.9787 -0.1971
vn 0.0572 0.9787 -0.1970
vn 0.0688 0.9770 -0.2017
vn -0.2080 0.2834 0.9362
vn -0.2739 0.2508 0.9285
vn -0.1648 0.3036 0.9384
vn 0.5316 0.3277 0.7811
vn 0.5606 0.2812 0.7789
vn 0.4929 0.3846 0.7805
vn -0.0168 0.3731 0.9276
vn -0.0246 0.3796 0.9248
vn 0.0264 0.3366 0.9413
vn 0.5867 0.7934 0.1623
vn 0.3372 0.8430 0.4190
vn 0.8095 0.5304 0.2518
vn 0.8054 0.5345 0.2562
vn 0.7829 0.5558 0.2797
vn 0.2191 0.4346 0.8736
vn 0.2279 0.4306 0.8733
vn 0.2370 0.4263 0.8730
vn 0.5218 0.4924 -0.6966
vn 0.4688 0.5494 -0.6917
vn 0.4226 0.5942 -0.6844
vn 0.3497 0.7406 -0.5738
vn 0.3546 0.7367 -0.5758
vn 0.3570 0.7348 -0.5768
vn -0.2660 0.8627 0.4302
vn -0.2648 0.8635 0.4292
vn -0.2651 0.8633 0.4294
vn -0.2664 0.8624 0.4305
vn 0.1441 0.6353 -0.7587
vn -0.3158 0.8827 0.3480
vn -0.8210 0.3489 0.4520
vn -0.8196 0.3502 0.4535
vn -0.8498 0.3196 0.4192
vn 0.0820 0.4839 -0.8713
vn 0.0482 0.4374 -0.8980
vn 0.1327 0.5507 -0.8241
vn -0.4586 0.3640 0.8107
vn -0.4568 0.3564 0.8151
vn -0.4598 0.3690 0.8078
vn 0.0365 -0.9993 -0.0000
vn -0.9992 0.0405 0.0000
vn -0.9996 0.0218 -0.0172
vn -0.9997 -0.0061 -0.0238
vn 1.0000 -0.0001 0.0000
vn 0.1295 0.9013 -0.4134
vn -0.9983 -0.0574 -0.0098
vn -0.0815 0.7908 0.6066
vn 0.0461 0.7958 -0.6037
vn 0.0499 -0.8701 -0.4903
vn -0.0730 -0.8458 0.5285
vn 0.1353 -0.8786 -0.4580
vn -0.3877 0.9019 0.1903
vn -0.0085 1.0000 0.0033
vn -0.5560 0.8060 -0.2030
vn 0.2424 0.6012 -0.7614
vn -0.6840 -0.1404 0.7158
vn 0.0427 -0.7804 0.6238
vn 0.7656 -0.6071 -0.2129
vn 0.8539 0.5008 0.1414
vn 0.8458 0.4631 -0.2648
vn 0.8708 0.4486 -0.2011
vn 0.9494 0.2843 0.1339
vn 0.5654 0.4650 0.6812
vn -0.1385 0.8442 -0.5178
vn -0.2832 0.4423 -0.8510
vn -0.7590 0.5012 -0.4155
vn -0.8486 0.5284 0.0256
vn -0.7649 0.3679 0.5287
vn 0.8927 0.1847 -0.4110
vn 0.6020 0.3578 0.7139
vn 0.4649 0.4909 0.7367
vn -0.0194 0.5641 0.8255
vn -0.8948 0.3356 -0.2946
vn -0.4997 0.3550 -0.7901
vn -0.4006 0.8252 -0.3983
vn 0.9070 0.2518 0.3375
vn 0.1829 0.2134 0.9597
vn -0.2979 0.3082 0.9035
vn -0.2477 0.1504 0.9571
vn -0.8054 0.5617 0.1890
vn 0.3222 0.5545 -0.7673
vn -0.2837 0.6702 -0.6858
vn -0.1753 0.8053 -0.5664
vn 0.1007 0.8494 -0.5181
vn 0.0987 0.8510 -0.5157
vn -0.0607 0.3768 -0.9243
vn -0.4351 0.3543 -0.8278
vn -0.9717 0.0671 -0.2266
vn 0.8501 0.4987 -0.1693
vn -0.7398 0.6341 -0.2249
vn -0.8107 0.0021 0.5854
vn -0.5738 0.4862 0.6590
vn 0.8765 0.4774 -0.0622
vn 0.7632 0.6437 0.0569
vn 0.7071 0.7071 -0.0027
vn 0.6986 0.4490 -0.5571
vn 0.7838 0.5135 0.3492
vn -0.3526 0.2749 -0.8945
vn -0.7780 0.4236 -0.4641
vn 0.0383 0.9812 -0.1892
vn -0.3368 0.2177 0.9161
vn 0.5909 0.2285 0.7737
vn -0.0639 0.4116 0.9091
vn 0.8391 0.4986 0.2177
vn 0.2117 0.4380 0.8737
vn 0.5556 0.4524 -0.6976
vn 0.3475 0.7423 -0.5729
vn -0.7686 0.3950 0.5032
vn 0.0235 0.4025 -0.9151
vn -0.4559 0.3527 0.8172
usemtl Material.001
s 1
f 1/1/1 3/2/2 4/3/3
f 7/4/4 8/5/5 5/6/6
f 2/7/7 5/8/7 3/9/7
f 9/10/8 5/8/8 8/11/8
f 9/10/9 3/9/9 5/8/9
f 3/12/10 9/13/10 11/14/10
f 7/15/11 9/16/12 8/17/13
f 7/18/14 6/19/14 11/20/14
f 11/20/15 6/19/15 10/21/15
f 6/19/16 1/22/16 10/21/16
f 4/3/17 10/23/17 1/1/17
f 13/24/18 15/25/19 12/26/20
f 16/27/21 15/28/21 17/29/21
f 17/30/22 14/31/23 18/32/24
f 19/33/25 15/28/26 16/27/27
f 13/34/28 19/35/29 20/36/30
f 20/36/31 14/37/32 13/34/33
f 17/38/10 18/39/10 20/40/10
f 21/41/34 22/42/34 23/43/34
f 24/44/35 23/43/36 22/42/37
f 29/45/38 26/46/39 28/47/40
f 24/48/41 30/49/42 29/50/43
f 25/51/44 29/50/45 28/52/46
f 21/53/47 30/54/48 22/55/49
f 23/43/50 26/46/51 21/41/52
f 23/43/53 28/47/54 27/56/55
f 35/57/34 36/58/34 32/59/34
f 38/60/34 39/61/34 40/62/34
f 43/63/34 41/64/34 42/65/34
f 47/66/34 48/67/34 44/68/34
f 54/69/34 55/70/34 56/71/34
f 59/72/34 60/73/34 61/74/34
f 68/75/34 62/76/34 66/77/34
f 69/78/56 70/79/56 71/80/56
f 70/81/57 72/82/58 73/83/59
f 72/82/60 75/84/61 73/83/62
f 56/85/63 74/86/64 72/82/65
f 56/85/66 69/87/67 50/88/68
f 69/78/69 51/89/70 50/90/71
f 70/91/72 73/92/72 76/93/72
f 73/92/73 77/94/73 76/93/73
f 70/91/74 76/93/74 71/95/74
f 75/96/75 77/94/75 73/92/75
f 75/96/76 78/97/77 77/94/78
f 54/98/79 74/99/80 55/100/81
f 53/101/82 78/102/83 54/103/84
f 52/104/85 77/105/86 53/101/87
f 52/106/88 71/80/89 76/107/90
f 60/108/91 80/109/92 61/110/93
f 81/111/94 80/112/94 79/113/94
f 82/114/95 61/115/96 80/116/97
f 82/114/98 81/117/99 83/118/100
f 57/119/101 84/120/102 58/121/103
f 83/118/104 84/120/104 82/114/104
f 85/122/105 84/123/105 83/124/105
f 59/125/106 84/126/107 85/127/108
f 85/127/109 60/128/110 59/125/111
f 81/111/112 85/122/113 83/124/114
f 86/129/115 64/130/116 63/131/117
f 88/132/118 64/133/119 87/134/120
f 88/132/121 66/135/122 65/136/123
f 90/137/124 66/135/125 89/138/126
f 91/139/127 67/140/128 90/141/129
f 62/142/130 91/143/131 92/144/132
f 92/145/133 89/146/134 88/147/135
f 62/142/136 86/148/137 63/149/138
f 94/150/139 33/151/140 93/152/141
f 93/153/142 32/154/143 95/155/144
f 94/156/145 93/157/145 96/158/145
f 94/159/146 96/160/146 97/161/146
f 94/159/147 35/162/148 34/163/149
f 96/158/150 95/164/151 98/165/152
f 99/166/153 98/165/153 95/164/153
f 95/155/154 100/167/154 99/168/154
f 100/167/155 32/154/156 31/169/157
f 101/170/158 31/171/159 36/172/160
f 100/173/161 101/170/161 99/174/161
f 35/162/162 101/175/163 36/176/164
f 99/177/165 101/175/166 97/161/167
f 102/178/168 103/179/168 104/180/168
f 41/181/169 102/182/170 42/183/171
f 102/182/172 43/184/173 42/183/174
f 105/185/175 104/180/175 103/179/175
f 106/186/176 105/185/176 103/179/176
f 40/187/177 103/188/178 41/189/179
f 107/190/180 40/191/181 39/192/182
f 106/186/183 108/193/184 105/185/185
f 38/194/186 107/195/187 39/196/188
f 105/197/189 38/194/190 37/198/191
f 37/198/192 104/199/193 105/197/194
f 109/200/195 110/201/195 111/202/195
f 110/201/196 112/203/196 111/202/196
f 109/204/197 46/205/198 45/206/199
f 47/207/200 111/208/201 112/209/202
f 109/204/203 44/210/204 113/211/205
f 110/212/206 113/213/207 114/214/208
f 114/214/209 115/215/210 112/216/211
f 110/212/212 114/214/209 112/216/211
f 114/214/213 113/213/213 116/217/213
f 114/214/214 116/217/214 115/215/214
f 48/218/215 116/219/216 49/220/217
f 44/221/218 116/222/219 113/223/220
f 48/224/221 112/209/222 115/225/223
f 1/1/1 2/226/224 3/2/2
f 5/6/6 2/227/225 1/228/226
f 1/228/226 6/229/227 5/6/6
f 6/229/227 7/4/4 5/6/6
f 11/14/10 10/230/10 4/231/228
f 4/231/228 3/12/10 11/14/10
f 7/15/11 11/232/229 9/16/12
f 13/24/18 14/233/230 15/25/19
f 17/30/22 15/234/231 14/31/23
f 19/33/25 12/235/232 15/28/26
f 13/34/28 12/236/233 19/35/29
f 20/36/31 18/237/234 14/37/32
f 20/40/10 19/238/10 16/239/10
f 16/239/10 17/38/10 20/40/10
f 24/44/35 25/240/235 23/43/36
f 30/241/236 26/46/39 29/45/38
f 26/46/39 27/56/237 28/47/40
f 24/48/41 22/242/238 30/49/42
f 25/51/44 24/48/239 29/50/45
f 21/53/47 26/243/240 30/54/48
f 23/43/50 27/56/241 26/46/51
f 23/43/53 25/240/242 28/47/54
f 36/58/34 31/244/34 32/59/34
f 32/59/34 33/245/34 35/57/34
f 33/245/34 34/246/34 35/57/34
f 41/64/34 37/247/34 40/62/34
f 37/247/34 38/60/34 40/62/34
f 43/63/34 37/247/34 41/64/34
f 49/248/34 44/68/34 48/67/34
f 44/68/34 45/249/34 47/66/34
f 45/249/34 46/250/34 47/66/34
f 56/71/34 50/251/34 52/252/34
f 50/251/34 51/253/34 52/252/34
f 52/252/34 53/254/34 56/71/34
f 53/254/34 54/69/34 56/71/34
f 61/74/34 57/255/34 59/72/34
f 57/255/34 58/256/34 59/72/34
f 62/76/34 63/257/34 64/258/34
f 64/258/34 65/259/34 62/76/34
f 65/259/34 66/77/34 62/76/34
f 66/77/34 67/260/34 68/75/34
f 70/81/57 69/87/243 72/82/58
f 72/82/60 74/86/244 75/84/61
f 56/85/63 55/261/245 74/86/64
f 56/85/66 72/82/246 69/87/67
f 69/78/69 71/80/247 51/89/70
f 75/96/76 74/262/248 78/97/77
f 54/98/79 78/263/249 74/99/80
f 53/101/82 77/105/250 78/102/83
f 52/104/85 76/264/251 77/105/86
f 52/106/88 51/89/252 71/80/89
f 60/108/91 79/265/253 80/109/92
f 82/114/95 57/119/254 61/115/96
f 82/114/98 80/116/255 81/117/99
f 57/119/101 82/114/256 84/120/102
f 59/125/106 58/266/257 84/126/107
f 85/127/109 79/267/258 60/128/110
f 81/111/112 79/113/259 85/122/113
f 86/129/115 87/268/260 64/130/116
f 88/132/118 65/136/261 64/133/119
f 88/132/121 89/138/262 66/135/122
f 90/137/124 67/269/263 66/135/125
f 91/139/127 68/270/264 67/140/128
f 62/142/130 68/271/265 91/143/131
f 88/147/135 87/272/266 86/273/267
f 92/145/133 91/274/268 89/146/134
f 91/274/268 90/275/269 89/146/134
f 88/147/135 86/273/267 92/145/133
f 62/142/136 92/144/270 86/148/137
f 94/150/139 34/276/271 33/151/140
f 93/153/142 33/277/272 32/154/143
f 94/159/147 97/161/273 35/162/148
f 96/158/150 93/157/274 95/164/151
f 100/167/155 95/155/275 32/154/156
f 101/170/158 100/173/276 31/171/159
f 35/162/162 97/161/277 101/175/163
f 97/161/167 96/160/278 98/278/279
f 98/278/279 99/177/165 97/161/167
f 41/181/169 103/279/280 102/182/170
f 102/182/172 104/280/281 43/184/173
f 40/187/177 106/281/282 103/188/178
f 107/190/180 106/282/283 40/191/181
f 106/186/183 107/283/284 108/193/184
f 38/194/186 108/284/285 107/195/187
f 105/197/189 108/284/286 38/194/190
f 37/198/192 43/285/287 104/199/193
f 109/204/197 111/286/288 46/205/198
f 47/207/200 46/287/289 111/208/201
f 109/204/203 45/206/290 44/210/204
f 110/212/206 109/288/291 113/213/207
f 48/218/215 115/289/292 116/219/216
f 44/221/218 49/290/293 116/222/219
f 48/224/221 47/207/294 112/209/222
l 18 13
l 4 2
